<?xml version="1.0" standalone="no"?>
<!DOCTYPE svg PUBLIC "-//W3C//DTD SVG 20010904//EN"
 "http://www.w3.org/TR/2001/REC-SVG-20010904/DTD/svg10.dtd">
<svg version="1.0" xmlns="http://www.w3.org/2000/svg"
 width="66.000000pt" height="66.000000pt" viewBox="0 0 66.000000 66.000000"
 preserveAspectRatio="xMidYMid meet">

<g transform="translate(0.000000,66.000000) scale(0.100000,-0.100000)"
fill="#000000" stroke="none">
<path d="M244 525 c-15 -23 -15 -27 0 -50 28 -42 86 -23 86 29 0 49 -58 63
-86 21z"/>
<path d="M210 404 c0 -3 7 -12 15 -20 11 -12 15 -40 15 -113 0 -75 -4 -101
-15 -111 -28 -23 -15 -30 54 -30 67 0 98 11 66 24 -12 4 -15 29 -15 131 l0
125 -60 0 c-33 0 -60 -3 -60 -6z"/>
<path d="M430 210 c-11 -11 -20 -27 -20 -35 0 -21 36 -55 58 -55 24 0 52 31
52 57 0 23 -30 53 -53 53 -9 0 -26 -9 -37 -20z"/>
</g>
</svg>
