<?xml version="1.0" standalone="no"?>
<!DOCTYPE svg PUBLIC "-//W3C//DTD SVG 20010904//EN"
 "http://www.w3.org/TR/2001/REC-SVG-20010904/DTD/svg10.dtd">
<svg version="1.0" xmlns="http://www.w3.org/2000/svg"
 width="100.000000pt" height="100.000000pt" viewBox="0 0 100.000000 100.000000"
 preserveAspectRatio="xMidYMid meet">
<metadata>
Created by potrace 1.10, written by Peter Selinger 2001-2011
</metadata>
<g transform="translate(0.000000,100.000000) scale(0.100000,-0.100000)"
fill="#000000" stroke="none">
<path d="M415 720 l-220 -220 215 -218 c118 -121 219 -220 224 -220 9 -2 138
115 145 132 2 4 -63 75 -144 156 l-147 147 146 143 c80 79 146 148 146 153 0
12 -120 141 -135 145 -5 1 -109 -97 -230 -218z m272 128 c18 -18 33 -39 33
-47 0 -8 -58 -74 -130 -146 -91 -92 -130 -139 -130 -155 0 -16 39 -63 130
-155 72 -73 130 -138 130 -146 0 -18 -61 -79 -79 -79 -20 0 -381 360 -381 380
-1 16 368 379 385 380 5 0 24 -14 42 -32z"/>
</g>
</svg>
