<svg height="66pt" preserveAspectRatio="xMidYMid meet" viewBox="0 0 66 66" width="66pt" xmlns="http://www.w3.org/2000/svg"><g transform="matrix(.1 0 0 -.1 0 66)"><path d="m244 525c-15-23-15-27 0-50 28-42 86-23 86 29 0 49-58 63-86 21z"/><path d="m210 404c0-3 7-12 15-20 11-12 15-40 15-113 0-75-4-101-15-111-28-23-15-30 54-30 67 0 98 11 66 24-12 4-15 29-15 131v125h-60c-33 0-60-3-60-6z"/><path d="m430 210c-11-11-20-27-20-35 0-21 36-55 58-55 24 0 52 31 52 57 0 23-30 53-53 53-9 0-26-9-37-20z"/></g></svg>